Coordinates
version=1
nRows=14
nColumns=24
inDegrees=yes

Units are S.I. units (second, meters, Newtons, ...)
Angles are in degrees.

endheader
time	pelvis_tilt	pelvis_list	pelvis_rotation	pelvis_tx	pelvis_ty	pelvis_tz	hip_flexion_r	hip_adduction_r	hip_rotation_r	knee_angle_r	ankle_angle_r	subtalar_angle_r	mtp_angle_r	hip_flexion_l	hip_adduction_l	hip_rotation_l	knee_angle_l	ankle_angle_l	subtalar_angle_l	mtp_angle_l	lumbar_extension	lumbar_bending	lumbar_rotation
      1.00800000	     -1.00280337	     -2.58703660	     -2.04192076	     -0.09165968	      1.01691833	      0.31026243	    -10.69753667	      7.07486093	      2.40099554	     -8.71831301	     14.36986513	     -3.97177332	      2.59302583	     19.63096230	     -1.93171502	     -1.70183121	      5.41030516	      4.18878514	     -4.71703260	     -2.68633554	     -6.82275824	      0.00482297	      6.96489400
      1.01216667	     -0.92036546	     -2.44154715	     -2.07380261	     -0.08597611	      1.01622969	      0.30996912	    -10.89651512	      6.89975667	      2.41642923	     -9.19199831	     14.57527811	     -4.09558477	      2.57064695	     19.66139449	     -1.70472171	     -1.62464954	      4.76459235	      4.14732887	     -4.81203512	     -2.64054469	     -6.87647620	     -0.17832573	      6.97038453
      1.01633333	     -0.79913493	     -2.27707688	     -2.11624106	     -0.08026665	      1.01562418	      0.30964862	    -11.08119086	      6.68281095	      2.26190965	     -9.79267535	     14.98499474	     -3.76782894	      2.42118938	     19.65038696	     -1.45787596	     -1.62776074	      4.08241020	      4.02021535	     -4.90386807	     -2.31467330	     -6.97077238	     -0.39764963	      6.99420214
      1.02050000	     -0.70652792	     -2.11407766	     -2.12934183	     -0.07454088	      1.01499450	      0.30933088	    -11.25790421	      6.49646381	      2.27340038	    -10.33375978	     15.14145214	     -3.93202919	      2.39983249	     19.68420585	     -1.20860347	     -1.57564079	      3.34201183	      3.90900976	     -5.02299727	     -2.25674792	     -7.02923368	     -0.60561872	      6.99513352
      1.02466667	     -0.58010528	     -1.93677247	     -2.15727938	     -0.06878918	      1.01443980	      0.30899623	    -11.41592201	      6.27365552	      2.14409509	    -11.00007591	     15.47398870	     -3.69321880	      2.25939314	     19.66681663	     -0.94598850	     -1.54919277	      2.60937646	      3.63642774	     -5.26399532	     -1.82184996	     -7.12323986	     -0.84606442	      6.98868826
      1.02883333	     -0.47856024	     -1.76461108	     -2.14806100	     -0.06302526	      1.01388129	      0.30863849	    -11.56421555	      6.08516849	      2.14166099	    -11.61752395	     15.56286410	     -3.89058065	      2.24235628	     19.69987306	     -0.68269550	     -1.50131199	      1.80771680	      3.46499519	     -5.39370567	     -1.75920332	     -7.18738957	     -1.06043118	      6.99004360
      1.03300000	     -0.38465659	     -1.59096688	     -2.14252503	     -0.05722550	      1.01331893	      0.30829687	    -11.66968283	      5.89334053	      2.10602269	    -12.31881721	     15.73232750	     -3.94145000	      1.45161065	     19.70694728	     -0.41960815	     -1.35240074	      1.07520767	      2.96504621	     -5.87045661	      1.81021123	     -7.22252680	     -1.31176854	      6.94392382
      1.03716667	     -0.25363408	     -1.40135635	     -2.13474420	     -0.05142586	      1.01286944	      0.30791856	    -11.79604902	      5.68274384	      2.06563767	    -13.04526257	     15.78231282	     -4.09344065	      1.45467160	     19.70938306	     -0.14089958	     -1.36230946	      0.24013256	      2.72075030	     -6.00381160	      1.81822181	     -7.32359675	     -1.54367228	      6.94723227
      1.04133333	     -0.13275046	     -1.19297991	     -2.12860428	     -0.04557813	      1.01244337	      0.30755063	    -11.87773703	      5.44716545	      1.98272863	    -13.85050703	     15.90857451	     -4.04494284	      1.48181864	     19.68905058	      0.15628725	     -1.28713250	     -0.53098166	      2.27507634	     -6.34279566	      1.87462395	     -7.39433143	     -1.85457384	      6.91967674
      1.04550000	     -0.02123768	     -1.01033192	     -2.10249324	     -0.03975742	      1.01202770	      0.30711471	    -11.90647684	      5.23956412	      1.84263351	    -14.73489632	     15.95272525	     -4.04598886	      1.54584231	     19.67468284	      0.43748499	     -1.09759215	     -1.29736218	      1.80961135	     -6.85833836	      1.99043641	     -7.45767590	     -2.07064211	      6.88047630
      1.04966667	      0.08240369	     -0.80281242	     -2.07752032	     -0.03389447	      1.01165506	      0.30670276	    -11.92144547	      5.01513221	      1.77159815	    -15.62493561	     15.89063146	     -4.18455535	      1.59463598	     19.67726006	      0.73477902	     -1.00634143	     -2.09463168	      1.39028223	     -7.14765872	      2.05671304	     -7.51178925	     -2.37069344	      6.84724384
      1.05383333	      0.19414979	     -0.61457748	     -2.03955792	     -0.02805236	      1.01133078	      0.30622080	    -11.89516640	      4.80103969	      1.61346172	    -16.61407661	     15.83886645	     -4.19739714	      1.73503248	     19.64698807	      1.02577916	     -0.76492731	     -2.84016475	      0.86139349	     -7.75453108	      2.20381907	     -7.57557399	     -2.58446144	      6.78651393
      1.05800000	      0.29406588	     -0.41228333	     -2.00380747	     -0.02219062	      1.01104117	      0.30574564	    -11.83036664	      4.57395065	      1.47462948	    -17.64862267	     15.70037982	     -4.26737599	      1.90523113	     19.63438746	      1.32336396	     -0.59486171	     -3.60613383	      0.38107146	     -8.19618668	      2.34010687	     -7.62594538	     -2.84289337	      6.72888481
      1.06216667	      0.38500547	     -0.20114462	     -1.96169042	     -0.01631391	      1.01079661	      0.30524514	    -11.72097664	      4.33244037	      1.29777128	    -18.74559538	     15.51067442	     -4.31174618	      2.12307157	     19.62559715	      1.63113317	     -0.40932340	     -4.37050725	     -0.07816582	     -8.63558710	      2.47135787	     -7.66398146	     -3.11123226	      6.66386419
